<svg xmlns="http://www.w3.org/2000/svg" viewBox="0 0 128 128" role="img" aria-labelledby="title desc">
  <title id="title">Crucix logo</title>
  <desc id="desc">A precision intelligence mark combining a crosshair, orbital path, and central X.</desc>
  <defs>
    <linearGradient id="core" x1="28" y1="22" x2="102" y2="108" gradientUnits="userSpaceOnUse">
      <stop stop-color="#82ffe1"/>
      <stop offset="0.48" stop-color="#44ccff"/>
      <stop offset="1" stop-color="#64f0c8"/>
    </linearGradient>
    <linearGradient id="halo" x1="12" y1="20" x2="116" y2="112" gradientUnits="userSpaceOnUse">
      <stop stop-color="#64f0c8" stop-opacity="0.18"/>
      <stop offset="0.55" stop-color="#44ccff" stop-opacity="0.38"/>
      <stop offset="1" stop-color="#64f0c8" stop-opacity="0.08"/>
    </linearGradient>
    <filter id="glow" x="-40%" y="-40%" width="180%" height="180%">
      <feGaussianBlur stdDeviation="2.4" result="blur"/>
      <feColorMatrix in="blur" type="matrix" values="0 0 0 0 0.31 0 0 0 0 0.96 0 0 0 0 0.82 0 0 0 0.72 0"/>
      <feMerge>
        <feMergeNode/>
        <feMergeNode in="SourceGraphic"/>
      </feMerge>
    </filter>
  </defs>
  <rect width="128" height="128" rx="24" fill="#020408"/>
  <path d="M23.8 74.2C13.7 55.4 22.3 34.1 41.2 27.3c18.4-6.6 41.5 2.4 54.7 20.5 13 17.9 10.3 37.9-5.4 48.9-16.2 11.3-43.7 8.2-59.5-7.5" fill="none" stroke="url(#halo)" stroke-width="3.4" stroke-linecap="round"/>
  <path d="M18 64h20M90 64h20M64 18v20M64 90v20" fill="none" stroke="#64f0c8" stroke-opacity="0.5" stroke-width="3" stroke-linecap="round"/>
  <circle cx="64" cy="64" r="35" fill="none" stroke="#64f0c8" stroke-opacity="0.22" stroke-width="2"/>
  <circle cx="64" cy="64" r="20" fill="none" stroke="#44ccff" stroke-opacity="0.42" stroke-width="2"/>
  <g filter="url(#glow)">
    <path d="M42 38h15.6L64 51.1 70.4 38H86L72.7 63.8 86.5 90H70.6L64 76.1 57.2 90H41.5l13.8-26.2L42 38Z" fill="url(#core)"/>
    <path d="M52.5 48.4h-9.6L38 38h14.4M75.5 79.6h9.6L90 90H75.6" fill="none" stroke="#e8f4f0" stroke-opacity="0.7" stroke-width="2" stroke-linecap="round" stroke-linejoin="round"/>
  </g>
  <circle cx="101" cy="42" r="4.5" fill="#82ffe1"/>
  <circle cx="101" cy="42" r="8" fill="none" stroke="#82ffe1" stroke-opacity="0.22" stroke-width="2"/>
  <circle cx="64" cy="64" r="3.6" fill="#020408" stroke="#e8f4f0" stroke-opacity="0.74" stroke-width="1.5"/>
</svg>
